<svg version="1.1" width="1042" height="271" xmlns="http://www.w3.org/2000/svg">
<rect x="0" y="0" width="1042" height="271" fill="#0d284d" />
<g transform="scale(4.07031, 4.10606)">
<path d="M 50 10 L 115 47 L 51 48 Z" fill="#2c5d8e" fill-opacity="0.501961" />
<path d="M 22 56 L 21 64 L 1 55 Z" fill="#a1bfd2" fill-opacity="0.501961" />
<path d="M 228 2 L 245 12 L 249 3 Z" fill="#98b9cc" fill-opacity="0.501961" />
<path d="M -12 25 L 142 0 L -16 -16 Z" fill="#0a0c1e" fill-opacity="0.501961" />
<path d="M 271 41 L 156 51 L 179 10 Z" fill="#0e3e71" fill-opacity="0.501961" />
<path d="M 271 53 L 165 81 L 71 52 Z" fill="#090d22" fill-opacity="0.501961" />
<path d="M 104 7 L 264 19 L 184 -16 Z" fill="#0e1525" fill-opacity="0.501961" />
<path d="M 65 24 L 68 14 L 60 20 Z" fill="#c5cfd2" fill-opacity="0.501961" />
<path d="M 50 73 L 14 31 L 95 19 Z" fill="#00316a" fill-opacity="0.501961" />
<path d="M 232 3 L 242 10 L 229 11 Z" fill="#4895c4" fill-opacity="0.501961" />
<path d="M 181 33 L 189 40 L 174 50 Z" fill="#5280a4" fill-opacity="0.501961" />
<path d="M 146 10 L 152 57 L 49 28 Z" fill="#0b325d" fill-opacity="0.501961" />
<path d="M 66 22 L 48 14 L 53 21 Z" fill="#81a6bc" fill-opacity="0.501961" />
<path d="M 247 -15 L 271 17 L 251 27 Z" fill="#0b0313" fill-opacity="0.501961" />
<path d="M 20 59 L 13 63 L 5 61 Z" fill="#5cc7e6" fill-opacity="0.501961" />
<path d="M 77 54 L 129 68 L 64 69 Z" fill="#0b0819" fill-opacity="0.501961" />
<path d="M 126 48 L 117 47 L 127 36 Z" fill="#417897" fill-opacity="0.501961" />
<path d="M 81 46 L 70 37 L 90 43 Z" fill="#61819b" fill-opacity="0.501961" />
<path d="M 187 5 L 188 23 L 179 15 Z" fill="#1c678a" fill-opacity="0.501961" />
<path d="M 0 64 L 37 63 L 51 81 Z" fill="#0a000c" fill-opacity="0.501961" />
<path d="M 111 13 L 109 8 L 106 14 Z" fill="#7296a1" fill-opacity="0.501961" />
<path d="M 5 81 L 3 40 L -6 54 Z" fill="#0a0414" fill-opacity="0.501961" />
<path d="M 52 13 L -16 22 L -16 57 Z" fill="#002359" fill-opacity="0.501961" />
<path d="M 271 28 L 178 9 L 246 52 Z" fill="#012659" fill-opacity="0.501961" />
<path d="M 109 43 L 100 48 L 82 42 Z" fill="#4b698e" fill-opacity="0.501961" />
<path d="M 248 81 L 195 48 L 271 60 Z" fill="#0b0f27" fill-opacity="0.501961" />
<path d="M 250 5 L 238 8 L 244 10 Z" fill="#9bc5d0" fill-opacity="0.501961" />
<path d="M 198 54 L 193 74 L 206 81 Z" fill="#014b91" fill-opacity="0.501961" />
<path d="M 202 2 L 239 -16 L 206 45 Z" fill="#091a38" fill-opacity="0.501961" />
<path d="M 15 23 L 90 54 L 56 56 Z" fill="#093a70" fill-opacity="0.501961" />
<path d="M 124 9 L 126 32 L 147 -16 Z" fill="#0b1427" fill-opacity="0.501961" />
<path d="M 7 61 L 4 56 L 7 53 Z" fill="#9796a8" fill-opacity="0.501961" />
<path d="M 84 18 L 87 13 L 93 18 Z" fill="#4e7e96" fill-opacity="0.501961" />
<path d="M 45 55 L -16 52 L -16 34 Z" fill="#061333" fill-opacity="0.501961" />
<path d="M 154 -3 L 85 -16 L 64 18 Z" fill="#0d2138" fill-opacity="0.501961" />
<path d="M 54 14 L 51 22 L 68 17 Z" fill="#436183" fill-opacity="0.501961" />
<path d="M 164 19 L 223 19 L 186 40 Z" fill="#133158" fill-opacity="0.501961" />
<path d="M 236 42 L 223 48 L 221 44 Z" fill="#186793" fill-opacity="0.501961" />
<path d="M 102 18 L 44 29 L 129 46 Z" fill="#072755" fill-opacity="0.501961" />
<path d="M 246 0 L 184 5 L 192 -16 Z" fill="#100f21" fill-opacity="0.501961" />
<path d="M 58 39 L 52 53 L 88 33 Z" fill="#275782" fill-opacity="0.501961" />
<path d="M 18 48 L 32 57 L 33 79 Z" fill="#0d1029" fill-opacity="0.501961" />
<path d="M 127 49 L 115 64 L 170 49 Z" fill="#0b152c" fill-opacity="0.501961" />
<path d="M 149 43 L 148 40 L 141 45 Z" fill="#3289a1" fill-opacity="0.501961" />
<path d="M 132 13 L 143 10 L 146 22 Z" fill="#05507b" fill-opacity="0.501961" />
<path d="M 241 2 L 232 7 L 243 10 Z" fill="#175582" fill-opacity="0.501961" />
<path d="M 199 49 L 204 41 L 199 41 Z" fill="#2785b6" fill-opacity="0.501961" />
<path d="M 169 13 L 163 16 L 168 10 Z" fill="#088ab7" fill-opacity="0.501961" />
<path d="M 42 -11 L -16 4 L 92 19 Z" fill="#0c142e" fill-opacity="0.501961" />
<path d="M 121 29 L 108 33 L 107 22 Z" fill="#054783" fill-opacity="0.501961" />
<path d="M 25 47 L 28 43 L 35 46 Z" fill="#065fa6" fill-opacity="0.501961" />
<path d="M 20 55 L 6 66 L 3 58 Z" fill="#24527a" fill-opacity="0.501961" />
<path d="M 52 17 L 64 16 L 49 24 Z" fill="#436c90" fill-opacity="0.501961" />
<path d="M 200 31 L 197 26 L 201 27 Z" fill="#338da1" fill-opacity="0.501961" />
<path d="M 155 24 L 179 -14 L 140 -7 Z" fill="#0c162a" fill-opacity="0.501961" />
<path d="M 116 52 L 124 48 L 118 46 Z" fill="#2472a7" fill-opacity="0.501961" />
<path d="M 180 38 L 179 43 L 191 43 Z" fill="#5094b6" fill-opacity="0.501961" />
<path d="M 246 29 L 248 -4 L 271 10 Z" fill="#0d142d" fill-opacity="0.501961" />
<path d="M 181 23 L 132 14 L 176 51 Z" fill="#03295c" fill-opacity="0.501961" />
<path d="M 119 31 L 116 18 L 124 4 Z" fill="#1a4c6a" fill-opacity="0.501961" />
<path d="M 260 36 L 212 23 L 234 20 Z" fill="#043771" fill-opacity="0.501961" />
<path d="M 24 57 L 17 57 L 17 62 Z" fill="#c8c5c3" fill-opacity="0.501961" />
<path d="M 160 65 L 63 81 L 89 47 Z" fill="#0c162d" fill-opacity="0.501961" />
<path d="M 111 58 L 113 61 L 114 56 Z" fill="#0465a0" fill-opacity="0.501961" />
<path d="M 247 11 L 223 10 L 262 35 Z" fill="#06193d" fill-opacity="0.501961" />
<path d="M 201 4 L 216 -16 L 205 -16 Z" fill="#055485" fill-opacity="0.501961" />
<path d="M 230 2 L 233 4 L 233 10 Z" fill="#8d8ba3" fill-opacity="0.501961" />
<path d="M 180 44 L 197 31 L 202 14 Z" fill="#1a3052" fill-opacity="0.501961" />
<path d="M 209 59 L 213 59 L 208 68 Z" fill="#00458b" fill-opacity="0.501961" />
<path d="M 70 28 L 70 13 L 82 2 Z" fill="#083159" fill-opacity="0.501961" />
<path d="M 99 11 L 97 4 L 99 4 Z" fill="#0d5e7b" fill-opacity="0.501961" />
<path d="M 58 18 L 62 23 L 49 22 Z" fill="#2d86ac" fill-opacity="0.501961" />
<path d="M 196 61 L 183 49 L 226 48 Z" fill="#081634" fill-opacity="0.501961" />
<path d="M 24 64 L -10 63 L 11 81 Z" fill="#0d0e1f" fill-opacity="0.501961" />
<path d="M 211 14 L 216 4 L 234 6 Z" fill="#0b1731" fill-opacity="0.501961" />
<path d="M 139 46 L 149 57 L 145 60 Z" fill="#0d436b" fill-opacity="0.501961" />
<path d="M 18 8 L 18 1 L 24 -7 Z" fill="#023b76" fill-opacity="0.501961" />
<path d="M 43 81 L 21 57 L 38 62 Z" fill="#071534" fill-opacity="0.501961" />
<path d="M 106 3 L 135 -16 L 114 -16 Z" fill="#0d6281" fill-opacity="0.501961" />
<path d="M 90 32 L 92 43 L 80 49 Z" fill="#304c78" fill-opacity="0.501961" />
<path d="M 127 15 L 106 5 L 124 23 Z" fill="#081931" fill-opacity="0.501961" />
<path d="M 144 34 L 192 56 L 154 54 Z" fill="#062a55" fill-opacity="0.501961" />
<path d="M 56 18 L 57 21 L 47 19 Z" fill="#162656" fill-opacity="0.501961" />
<path d="M 168 28 L 171 22 L 174 38 Z" fill="#0a4d87" fill-opacity="0.501961" />
<path d="M 101 25 L 88 20 L 96 46 Z" fill="#071e43" fill-opacity="0.501961" />
<path d="M 46 19 L 23 16 L 54 11 Z" fill="#0c1a36" fill-opacity="0.501961" />
<path d="M 83 48 L 79 38 L 78 42 Z" fill="#519cb6" fill-opacity="0.501961" />
<path d="M 29 71 L 75 62 L 71 45 Z" fill="#04204f" fill-opacity="0.501961" />
<path d="M 140 13 L 124 29 L 132 45 Z" fill="#04214a" fill-opacity="0.501961" />
<path d="M 55 70 L 42 49 L 11 43 Z" fill="#04295b" fill-opacity="0.501961" />
<path d="M 192 20 L 199 21 L 185 6 Z" fill="#215778" fill-opacity="0.501961" />
<path d="M 104 15 L 110 11 L 122 21 Z" fill="#363f56" fill-opacity="0.501961" />
<path d="M 194 16 L 218 13 L 216 43 Z" fill="#042650" fill-opacity="0.501961" />
<path d="M 59 40 L 57 39 L 57 35 Z" fill="#2d9ab7" fill-opacity="0.501961" />
<path d="M 180 45 L 178 38 L 181 36 Z" fill="#5492aa" fill-opacity="0.501961" />
<path d="M 181 45 L 175 48 L 175 52 Z" fill="#2d6a9d" fill-opacity="0.501961" />
<path d="M 184 29 L 191 17 L 187 12 Z" fill="#081e3e" fill-opacity="0.501961" />
<path d="M 147 52 L 122 48 L 131 81 Z" fill="#0d172f" fill-opacity="0.501961" />
<path d="M 251 57 L 215 53 L 240 40 Z" fill="#041d48" fill-opacity="0.501961" />
<path d="M 174 5 L 172 -9 L 152 -16 Z" fill="#0c4669" fill-opacity="0.501961" />
<path d="M 249 12 L 248 8 L 245 5 Z" fill="#b1adb6" fill-opacity="0.501961" />
<path d="M 247 14 L 252 -1 L 270 26 Z" fill="#0d1227" fill-opacity="0.501961" />
<path d="M 219 13 L 214 4 L 213 8 Z" fill="#073f6e" fill-opacity="0.501961" />
<path d="M 182 15 L 184 18 L 184 14 Z" fill="#15a2d9" fill-opacity="0.501961" />
<path d="M 103 49 L 116 50 L 127 67 Z" fill="#0b142c" fill-opacity="0.501961" />
<path d="M 216 -16 L 232 0 L 217 12 Z" fill="#0f0f22" fill-opacity="0.501961" />
<path d="M 206 32 L 179 30 L 183 40 Z" fill="#172f56" fill-opacity="0.501961" />
<path d="M 58 24 L 64 22 L 66 16 Z" fill="#8ebcc8" fill-opacity="0.501961" />
<path d="M 224 32 L 221 19 L 219 24 Z" fill="#06518b" fill-opacity="0.501961" />
<path d="M 192 27 L 186 19 L 171 22 Z" fill="#1d476f" fill-opacity="0.501961" />
<path d="M 118 21 L 113 44 L 95 36 Z" fill="#04285a" fill-opacity="0.501961" />
<path d="M 41 10 L 9 29 L 18 48 Z" fill="#04295b" fill-opacity="0.501961" />
<path d="M 176 26 L 185 10 L 162 23 Z" fill="#12284b" fill-opacity="0.501961" />
<path d="M 106 1 L 105 13 L 86 -16 Z" fill="#0e1121" fill-opacity="0.501961" />
<path d="M 62 23 L 50 27 L 51 44 Z" fill="#022e5e" fill-opacity="0.501961" />
<path d="M 47 42 L 55 47 L 56 54 Z" fill="#035294" fill-opacity="0.501961" />
<path d="M -15 55 L 3 46 L 20 53 Z" fill="#0e1328" fill-opacity="0.501961" />
<path d="M 198 26 L 192 19 L 182 23 Z" fill="#01234b" fill-opacity="0.501961" />
<path d="M 113 47 L 122 51 L 120 43 Z" fill="#295f89" fill-opacity="0.501961" />
<path d="M 135 49 L 140 45 L 146 45 Z" fill="#476182" fill-opacity="0.501961" />
<path d="M 25 -4 L -6 -2 L -15 17 Z" fill="#100b1d" fill-opacity="0.501961" />
<path d="M 82 28 L 81 40 L 90 35 Z" fill="#101c44" fill-opacity="0.501961" />
<path d="M 149 37 L 150 13 L 138 27 Z" fill="#04336b" fill-opacity="0.501961" />
<path d="M 84 28 L 90 19 L 73 23 Z" fill="#093b70" fill-opacity="0.501961" />
<path d="M 11 50 L -16 47 L 34 34 Z" fill="#05204b" fill-opacity="0.501961" />
<path d="M 173 18 L 180 14 L 169 25 Z" fill="#324e71" fill-opacity="0.501961" />
<path d="M 242 10 L 236 11 L 240 5 Z" fill="#1895b6" fill-opacity="0.501961" />
<path d="M 144 9 L 141 13 L 135 14 Z" fill="#0d87a9" fill-opacity="0.501961" />
<path d="M 17 59 L 15 60 L 22 62 Z" fill="#cad3d8" fill-opacity="0.501961" />
<path d="M 150 20 L 135 1 L 176 19 Z" fill="#0b213d" fill-opacity="0.501961" />
<path d="M 185 63 L 184 74 L 190 81 Z" fill="#0764ae" fill-opacity="0.501961" />
<path d="M 63 16 L 67 20 L 64 23 Z" fill="#b8bcc1" fill-opacity="0.501961" />
<path d="M 242 11 L 237 15 L 252 12 Z" fill="#0d0d22" fill-opacity="0.501961" />
<path d="M 16 63 L 14 63 L 16 58 Z" fill="#126995" fill-opacity="0.501961" />
<path d="M 200 50 L 202 42 L 222 42 Z" fill="#0d4471" fill-opacity="0.501961" />
<path d="M 5 58 L -12 81 L -13 44 Z" fill="#0f0e23" fill-opacity="0.501961" />
<path d="M 66 18 L 60 16 L 62 18 Z" fill="#243d60" fill-opacity="0.501961" />
<path d="M 234 2 L 232 8 L 232 5 Z" fill="#abb2c9" fill-opacity="0.501961" />
<path d="M 254 35 L 265 22 L 271 42 Z" fill="#015aae" fill-opacity="0.501961" />
<path d="M 243 4 L 234 9 L 236 2 Z" fill="#2d486f" fill-opacity="0.501961" />
<path d="M 155 37 L 151 48 L 150 26 Z" fill="#031538" fill-opacity="0.501961" />
<path d="M 118 5 L 124 6 L 123 8 Z" fill="#0d6886" fill-opacity="0.501961" />
<path d="M 185 29 L 189 18 L 195 16 Z" fill="#12527e" fill-opacity="0.501961" />
<path d="M 60 49 L 71 39 L 81 39 Z" fill="#1e4774" fill-opacity="0.501961" />
<path d="M 82 -16 L 166 -6 L 137 11 Z" fill="#0f1226" fill-opacity="0.501961" />
<path d="M 131 57 L 136 75 L 176 71 Z" fill="#100a1b" fill-opacity="0.501961" />
<path d="M 133 19 L 140 13 L 149 33 Z" fill="#061f49" fill-opacity="0.501961" />
<path d="M 181 -9 L 156 -15 L 183 10 Z" fill="#0c0b22" fill-opacity="0.501961" />
<path d="M 112 56 L 135 56 L 129 51 Z" fill="#09274b" fill-opacity="0.501961" />
<path d="M 134 44 L 136 32 L 133 37 Z" fill="#0c487b" fill-opacity="0.501961" />
<path d="M 125 8 L 113 9 L 109 3 Z" fill="#0e0d1e" fill-opacity="0.501961" />
<path d="M 58 43 L 63 50 L 51 69 Z" fill="#042b5f" fill-opacity="0.501961" />
<path d="M 111 14 L 105 8 L 109 8 Z" fill="#5891a0" fill-opacity="0.501961" />
<path d="M 180 39 L 191 38 L 199 29 Z" fill="#364b6d" fill-opacity="0.501961" />
<path d="M 16 25 L 18 14 L 20 30 Z" fill="#053a74" fill-opacity="0.501961" />
<path d="M 199 26 L 201 28 L 194 31 Z" fill="#3283a0" fill-opacity="0.501961" />
<path d="M 121 15 L 117 31 L 123 30 Z" fill="#1d537c" fill-opacity="0.501961" />
<path d="M 236 29 L 233 10 L 251 32 Z" fill="#052354" fill-opacity="0.501961" />
<path d="M 182 13 L 203 3 L 224 13 Z" fill="#0d1a31" fill-opacity="0.501961" />
<path d="M 95 4 L 96 20 L 72 -6 Z" fill="#0d1931" fill-opacity="0.501961" />
<path d="M 9 62 L 20 68 L -11 74 Z" fill="#0d102a" fill-opacity="0.501961" />
<path d="M 95 48 L 73 49 L 81 44 Z" fill="#1b3f71" fill-opacity="0.501961" />
<path d="M 67 13 L 77 6 L 92 6 Z" fill="#0d3555" fill-opacity="0.501961" />
<path d="M 102 57 L 88 46 L 86 52 Z" fill="#041b41" fill-opacity="0.501961" />
<path d="M 154 46 L 165 48 L 156 49 Z" fill="#1e517d" fill-opacity="0.501961" />
<path d="M 72 33 L 64 47 L 67 28 Z" fill="#092756" fill-opacity="0.501961" />
<path d="M 56 20 L 62 23 L 56 24 Z" fill="#1691b8" fill-opacity="0.501961" />
<path d="M 17 58 L 22 54 L 11 55 Z" fill="#456182" fill-opacity="0.501961" />
<path d="M 117 24 L 110 11 L 118 12 Z" fill="#131d3d" fill-opacity="0.501961" />
<path d="M 71 42 L 56 38 L 84 34 Z" fill="#2d567c" fill-opacity="0.501961" />
<path d="M 144 79 L 156 42 L 159 67 Z" fill="#0c1831" fill-opacity="0.501961" />
<path d="M 218 49 L 221 42 L 234 49 Z" fill="#104073" fill-opacity="0.501961" />
<path d="M 165 46 L 145 39 L 179 40 Z" fill="#042350" fill-opacity="0.501961" />
<path d="M 249 42 L 237 36 L 244 37 Z" fill="#034389" fill-opacity="0.501961" />
<path d="M 110 42 L 107 46 L 107 50 Z" fill="#03143b" fill-opacity="0.501961" />
<path d="M 195 32 L 192 27 L 184 40 Z" fill="#0e2347" fill-opacity="0.501961" />
<path d="M 109 2 L 100 4 L 105 11 Z" fill="#0b243b" fill-opacity="0.501961" />
<path d="M 8 64 L 6 60 L 4 61 Z" fill="#67a1bb" fill-opacity="0.501961" />
<path d="M 186 43 L 192 47 L 190 41 Z" fill="#38547b" fill-opacity="0.501961" />
<path d="M 22 63 L -8 63 L 1 76 Z" fill="#0e1429" fill-opacity="0.501961" />
<path d="M 56 19 L 48 18 L 51 14 Z" fill="#847b8b" fill-opacity="0.501961" />
<path d="M 44 23 L 50 20 L 44 10 Z" fill="#02183e" fill-opacity="0.501961" />
<path d="M 57 14 L 32 17 L 31 8 Z" fill="#0b213f" fill-opacity="0.501961" />
<path d="M 270 81 L 252 49 L 204 56 Z" fill="#0b1630" fill-opacity="0.501961" />
<path d="M 117 24 L 131 35 L 129 24 Z" fill="#093157" fill-opacity="0.501961" />
<path d="M 157 61 L 159 63 L 158 64 Z" fill="#094b7a" fill-opacity="0.501961" />
<path d="M 108 28 L 107 16 L 115 37 Z" fill="#0a4980" fill-opacity="0.501961" />
<path d="M 49 23 L 58 27 L 60 38 Z" fill="#084175" fill-opacity="0.501961" />
<path d="M 68 21 L 80 25 L 75 6 Z" fill="#071d43" fill-opacity="0.501961" />
<path d="M 40 46 L 30 51 L 38 18 Z" fill="#07366b" fill-opacity="0.501961" />
<path d="M 33 81 L 0 81 L 44 60 Z" fill="#033b79" fill-opacity="0.501961" />
<path d="M 23 61 L 20 59 L 18 60 Z" fill="#8c9aa6" fill-opacity="0.501961" />
<path d="M 199 59 L 206 81 L 185 81 Z" fill="#02488b" fill-opacity="0.501961" />
<path d="M 144 12 L 143 21 L 152 13 Z" fill="#074272" fill-opacity="0.501961" />
<path d="M 203 17 L 231 22 L 217 14 Z" fill="#082e5c" fill-opacity="0.501961" />
<path d="M 120 34 L 127 44 L 117 46 Z" fill="#1c3755" fill-opacity="0.501961" />
<path d="M 13 -16 L 81 11 L 44 12 Z" fill="#0f152a" fill-opacity="0.501961" />
<path d="M 161 -1 L 166 -9 L 169 10 Z" fill="#0c0d20" fill-opacity="0.501961" />
<path d="M 105 42 L 92 42 L 106 16 Z" fill="#05214a" fill-opacity="0.501961" />
<path d="M 140 -13 L 140 10 L 147 -16 Z" fill="#0c3e58" fill-opacity="0.501961" />
<path d="M 98 40 L 104 29 L 117 23 Z" fill="#08366a" fill-opacity="0.501961" />
<path d="M 236 3 L 220 -16 L 271 -9 Z" fill="#0f1328" fill-opacity="0.501961" />
<path d="M 157 40 L 167 31 L 160 30 Z" fill="#06163a" fill-opacity="0.501961" />
<path d="M 96 47 L 101 48 L 103 45 Z" fill="#527a9a" fill-opacity="0.501961" />
<path d="M 87 12 L 86 15 L 89 17 Z" fill="#4e8ca3" fill-opacity="0.501961" />
<path d="M 229 45 L 223 46 L 229 40 Z" fill="#1e7498" fill-opacity="0.501961" />
<path d="M 88 -2 L 79 13 L 88 12 Z" fill="#0c132c" fill-opacity="0.501961" />
<path d="M 200 30 L 238 30 L 225 43 Z" fill="#042758" fill-opacity="0.501961" />
<path d="M 102 48 L 105 47 L 100 47 Z" fill="#7e99b8" fill-opacity="0.501961" />
<path d="M 186 21 L 185 10 L 183 21 Z" fill="#1b6993" fill-opacity="0.501961" />
<path d="M 56 24 L 71 36 L 91 31 Z" fill="#082655" fill-opacity="0.501961" />
<path d="M 129 38 L 118 43 L 125 42 Z" fill="#32738f" fill-opacity="0.501961" />
<path d="M 59 38 L 71 20 L 72 30 Z" fill="#093a6b" fill-opacity="0.501961" />
<path d="M 9 56 L 11 58 L 17 56 Z" fill="#173c5f" fill-opacity="0.501961" />
<path d="M 32 35 L 50 61 L 48 45 Z" fill="#062557" fill-opacity="0.501961" />
<path d="M 53 15 L 54 18 L 50 16 Z" fill="#c6c0cb" fill-opacity="0.501961" />
<path d="M 53 24 L 64 33 L 66 25 Z" fill="#051e48" fill-opacity="0.501961" />
<path d="M 236 31 L 243 36 L 234 21 Z" fill="#053a78" fill-opacity="0.501961" />
<path d="M 242 69 L 241 46 L 249 50 Z" fill="#07244f" fill-opacity="0.501961" />
<path d="M 91 49 L 112 43 L 89 42 Z" fill="#2b5681" fill-opacity="0.501961" />
<path d="M 217 6 L 212 5 L 215 4 Z" fill="#025188" fill-opacity="0.501961" />
<path d="M 34 -4 L 51 -16 L 54 15 Z" fill="#0d1e39" fill-opacity="0.501961" />
<path d="M 30 48 L 42 58 L 22 53 Z" fill="#071a3c" fill-opacity="0.501961" />
<path d="M 179 36 L 183 30 L 182 26 Z" fill="#385077" fill-opacity="0.501961" />
<path d="M 233 47 L 249 48 L 219 31 Z" fill="#062c60" fill-opacity="0.501961" />
<path d="M 90 49 L 107 60 L 119 49 Z" fill="#091935" fill-opacity="0.501961" />
<path d="M 79 44 L 75 46 L 87 48 Z" fill="#576889" fill-opacity="0.501961" />
<path d="M 53 18 L 65 16 L 56 21 Z" fill="#255077" fill-opacity="0.501961" />
<path d="M 29 48 L 37 44 L 28 45 Z" fill="#085492" fill-opacity="0.501961" />
<path d="M 124 5 L 135 -6 L 136 -16 Z" fill="#0f3e57" fill-opacity="0.501961" />
<path d="M 167 13 L 167 16 L 169 12 Z" fill="#0971a0" fill-opacity="0.501961" />
<path d="M 137 13 L 139 11 L 141 12 Z" fill="#089fc9" fill-opacity="0.501961" />
<path d="M 209 47 L 196 45 L 202 48 Z" fill="#055e94" fill-opacity="0.501961" />
<path d="M 44 39 L 50 41 L 48 45 Z" fill="#094e8b" fill-opacity="0.501961" />
<path d="M 74 39 L 69 39 L 73 41 Z" fill="#0d1c4b" fill-opacity="0.501961" />
<path d="M 9 15 L 12 20 L -1 15 Z" fill="#062c5f" fill-opacity="0.501961" />
<path d="M 139 13 L 140 18 L 152 16 Z" fill="#061f4b" fill-opacity="0.501961" />
<path d="M 154 32 L 162 15 L 179 13 Z" fill="#062549" fill-opacity="0.501961" />
<path d="M 140 45 L 124 44 L 131 41 Z" fill="#041a3c" fill-opacity="0.501961" />
<path d="M 247 5 L 260 1 L 255 -9 Z" fill="#0f1835" fill-opacity="0.501961" />
<path d="M 95 33 L 83 41 L 93 39 Z" fill="#164471" fill-opacity="0.501961" />
<path d="M 49 24 L 31 43 L 56 36 Z" fill="#072859" fill-opacity="0.501961" />
<path d="M 116 22 L 118 15 L 104 20 Z" fill="#0a3163" fill-opacity="0.501961" />
<path d="M 211 47 L 205 41 L 204 47 Z" fill="#0d2953" fill-opacity="0.501961" />
<path d="M 195 34 L 185 35 L 198 30 Z" fill="#365274" fill-opacity="0.501961" />
<path d="M 137 41 L 144 41 L 141 43 Z" fill="#325b79" fill-opacity="0.501961" />
<path d="M 182 37 L 189 29 L 191 32 Z" fill="#01133c" fill-opacity="0.501961" />
<path d="M 161 59 L 158 55 L 173 51 Z" fill="#0a152f" fill-opacity="0.501961" />
<path d="M 109 56 L 118 62 L 110 60 Z" fill="#09446f" fill-opacity="0.501961" />
<path d="M 107 37 L 116 28 L 104 34 Z" fill="#051c44" fill-opacity="0.501961" />
<path d="M 189 19 L 186 25 L 184 24 Z" fill="#071538" fill-opacity="0.501961" />
<path d="M 101 34 L 105 30 L 101 30 Z" fill="#0a4b88" fill-opacity="0.501961" />
<path d="M 103 43 L 105 46 L 95 44 Z" fill="#213159" fill-opacity="0.501961" />
<path d="M 226 9 L 216 5 L 223 20 Z" fill="#091734" fill-opacity="0.501961" />
<path d="M 191 54 L 191 60 L 204 60 Z" fill="#0d142a" fill-opacity="0.501961" />
<path d="M 172 54 L 164 56 L 162 60 Z" fill="#0a325b" fill-opacity="0.501961" />
<path d="M 243 5 L 246 5 L 242 8 Z" fill="#dde0e6" fill-opacity="0.501961" />
<path d="M 8 56 L 5 57 L 4 55 Z" fill="#b7aab8" fill-opacity="0.501961" />
<path d="M 241 9 L 239 6 L 243 6 Z" fill="#479ec6" fill-opacity="0.501961" />
<path d="M 88 14 L 86 13 L 88 16 Z" fill="#5c9fb2" fill-opacity="0.501961" />
<path d="M 77 40 L 72 17 L 69 29 Z" fill="#0b2d5b" fill-opacity="0.501961" />
<path d="M 127 47 L 118 46 L 122 49 Z" fill="#4b85ae" fill-opacity="0.501961" />
<path d="M 103 11 L 91 15 L 81 8 Z" fill="#091a32" fill-opacity="0.501961" />
<path d="M 154 3 L 180 -16 L 168 -16 Z" fill="#104563" fill-opacity="0.501961" />
<path d="M 132 61 L 138 57 L 121 48 Z" fill="#0a203e" fill-opacity="0.501961" />
<path d="M 96 43 L 95 45 L 88 43 Z" fill="#00265b" fill-opacity="0.501961" />
<path d="M 151 59 L 115 81 L 174 77 Z" fill="#100c1e" fill-opacity="0.501961" />
<path d="M 242 8 L 242 3 L 244 3 Z" fill="#304671" fill-opacity="0.501961" />
<path d="M 179 51 L 167 45 L 173 51 Z" fill="#0d467f" fill-opacity="0.501961" />
<path d="M 80 56 L 60 41 L 65 51 Z" fill="#073163" fill-opacity="0.501961" />
<path d="M 90 22 L 91 -1 L 95 17 Z" fill="#103454" fill-opacity="0.501961" />
<path d="M 36 32 L 38 30 L 42 35 Z" fill="#0a5896" fill-opacity="0.501961" />
<path d="M 120 46 L 118 45 L 117 43 Z" fill="#121130" fill-opacity="0.501961" />
<path d="M 6 60 L 11 60 L 5 62 Z" fill="#77a6c2" fill-opacity="0.501961" />
<path d="M 148 42 L 145 41 L 144 46 Z" fill="#2e809a" fill-opacity="0.501961" />
<path d="M 159 47 L 161 49 L 157 47 Z" fill="#257eab" fill-opacity="0.501961" />
<path d="M 154 55 L 156 60 L 145 54 Z" fill="#083c64" fill-opacity="0.501961" />
<path d="M 246 22 L 235 10 L 265 21 Z" fill="#0a1531" fill-opacity="0.501961" />
<path d="M 82 42 L 81 44 L 76 42 Z" fill="#6ba6b5" fill-opacity="0.501961" />
<path d="M 60 28 L 61 18 L 62 23 Z" fill="#10345d" fill-opacity="0.501961" />
<path d="M 138 12 L 122 12 L 125 7 Z" fill="#0e2b3d" fill-opacity="0.501961" />
<path d="M 23 52 L 34 60 L 29 81 Z" fill="#0a142f" fill-opacity="0.501961" />
<path d="M 144 45 L 144 50 L 161 49 Z" fill="#0a2a53" fill-opacity="0.501961" />
<path d="M 204 18 L 210 41 L 203 37 Z" fill="#041c42" fill-opacity="0.501961" />
<path d="M 125 36 L 126 40 L 129 39 Z" fill="#1c7b9b" fill-opacity="0.501961" />
<path d="M 131 15 L 123 23 L 120 19 Z" fill="#0b112c" fill-opacity="0.501961" />
<path d="M 200 19 L 204 24 L 202 12 Z" fill="#0a3c63" fill-opacity="0.501961" />
<path d="M 13 57 L 7 58 L 8 60 Z" fill="#1a4276" fill-opacity="0.501961" />
<path d="M 172 46 L 171 43 L 177 44 Z" fill="#02133a" fill-opacity="0.501961" />
<path d="M 121 34 L 131 39 L 146 36 Z" fill="#09254a" fill-opacity="0.501961" />
<path d="M 182 48 L 171 48 L 181 44 Z" fill="#3b5581" fill-opacity="0.501961" />
<path d="M 200 23 L 196 11 L 201 15 Z" fill="#0a1d39" fill-opacity="0.501961" />
<path d="M 117 16 L 120 20 L 112 14 Z" fill="#4a5567" fill-opacity="0.501961" />
<path d="M 9 55 L 6 54 L 6 55 Z" fill="#9d929c" fill-opacity="0.501961" />
<path d="M 10 54 L -16 48 L -16 32 Z" fill="#0d1229" fill-opacity="0.501961" />
<path d="M 212 32 L 223 26 L 212 37 Z" fill="#0a3b6f" fill-opacity="0.501961" />
<path d="M 71 42 L 67 45 L 73 35 Z" fill="#477094" fill-opacity="0.501961" />
<path d="M 186 61 L 180 47 L 178 60 Z" fill="#081835" fill-opacity="0.501961" />
<path d="M -3 64 L 20 63 L 41 81 Z" fill="#10152a" fill-opacity="0.501961" />
<path d="M 182 39 L 181 42 L 180 42 Z" fill="#88d8e1" fill-opacity="0.501961" />
<path d="M 229 18 L 211 15 L 239 10 Z" fill="#08254b" fill-opacity="0.501961" />
<path d="M 142 67 L 142 81 L 154 53 Z" fill="#0e0f22" fill-opacity="0.501961" />
<path d="M 182 29 L 183 31 L 185 27 Z" fill="#00082b" fill-opacity="0.501961" />
<path d="M 143 9 L 142 -16 L 172 -16 Z" fill="#0f0e24" fill-opacity="0.501961" />
<path d="M 187 63 L 195 57 L 200 75 Z" fill="#071434" fill-opacity="0.501961" />
<path d="M 11 23 L 17 26 L 1 26 Z" fill="#04183b" fill-opacity="0.501961" />
<path d="M 77 16 L 87 17 L 69 23 Z" fill="#001c4d" fill-opacity="0.501961" />
<path d="M 150 14 L 155 21 L 163 15 Z" fill="#081030" fill-opacity="0.501961" />
<path d="M 186 1 L 178 -16 L 176 -5 Z" fill="#145c73" fill-opacity="0.501961" />
<path d="M 82 28 L 77 20 L 94 28 Z" fill="#0a3968" fill-opacity="0.501961" />
<path d="M 55 45 L 63 47 L 51 48 Z" fill="#0d6196" fill-opacity="0.501961" />
<path d="M 78 6 L 82 9 L 74 10 Z" fill="#0d476d" fill-opacity="0.501961" />
<path d="M 177 31 L 177 46 L 158 47 Z" fill="#042655" fill-opacity="0.501961" />
<path d="M 147 22 L 138 26 L 149 15 Z" fill="#09447b" fill-opacity="0.501961" />
<path d="M 30 31 L 35 22 L 50 19 Z" fill="#032557" fill-opacity="0.501961" />
<path d="M 55 46 L 55 37 L 46 46 Z" fill="#0a2c59" fill-opacity="0.501961" />
<path d="M 52 21 L 52 23 L 50 22 Z" fill="#86bcd2" fill-opacity="0.501961" />
<path d="M 134 38 L 123 44 L 131 43 Z" fill="#092957" fill-opacity="0.501961" />
<path d="M 206 32 L 204 39 L 207 37 Z" fill="#0a416e" fill-opacity="0.501961" />
<path d="M 171 26 L 183 39 L 177 18 Z" fill="#062757" fill-opacity="0.501961" />
<path d="M 226 48 L 225 38 L 219 31 Z" fill="#082249" fill-opacity="0.501961" />
<path d="M 80 50 L 72 53 L 85 53 Z" fill="#053f75" fill-opacity="0.501961" />
<path d="M 122 8 L 118 13 L 121 12 Z" fill="#105e7a" fill-opacity="0.501961" />
<path d="M 74 53 L 65 63 L 69 44 Z" fill="#052956" fill-opacity="0.501961" />
<path d="M 240 31 L 239 41 L 235 29 Z" fill="#051f4a" fill-opacity="0.501961" />
<path d="M 137 81 L 114 66 L 117 52 Z" fill="#0f1227" fill-opacity="0.501961" />
<path d="M 94 48 L 86 53 L 102 57 Z" fill="#0a2143" fill-opacity="0.501961" />
<path d="M 76 52 L 84 57 L 72 60 Z" fill="#061a40" fill-opacity="0.501961" />
<path d="M 238 64 L 248 51 L 246 58 Z" fill="#0a1229" fill-opacity="0.501961" />
<path d="M 49 81 L 70 60 L 107 59 Z" fill="#0d1128" fill-opacity="0.501961" />
<path d="M 31 26 L 21 29 L 22 51 Z" fill="#052d61" fill-opacity="0.501961" />
<path d="M 238 43 L 237 47 L 240 53 Z" fill="#040f2a" fill-opacity="0.501961" />
<path d="M 131 16 L 125 22 L 136 18 Z" fill="#093361" fill-opacity="0.501961" />
<path d="M 72 61 L 68 69 L 42 60 Z" fill="#071d41" fill-opacity="0.501961" />
<path d="M 14 59 L 8 61 L 15 61 Z" fill="#43a8c8" fill-opacity="0.501961" />
<path d="M 193 81 L 146 53 L 181 59 Z" fill="#0c1630" fill-opacity="0.501961" />
<path d="M 51 17 L 34 26 L 23 19 Z" fill="#06224b" fill-opacity="0.501961" />
<path d="M 105 -13 L 96 5 L 141 -16 Z" fill="#0c0c21" fill-opacity="0.501961" />
<path d="M 232 8 L 240 9 L 236 7 Z" fill="#5196b8" fill-opacity="0.501961" />
<path d="M 159 25 L 161 28 L 155 26 Z" fill="#0b477d" fill-opacity="0.501961" />
<path d="M 209 69 L 201 62 L 231 62 Z" fill="#04204c" fill-opacity="0.501961" />
<path d="M 170 4 L 184 -16 L 182 -6 Z" fill="#0d496f" fill-opacity="0.501961" />
<path d="M 61 3 L 76 7 L 53 9 Z" fill="#0d0d23" fill-opacity="0.501961" />
<path d="M 229 8 L 226 -16 L 163 -16 Z" fill="#0f1024" fill-opacity="0.501961" />
<path d="M 204 56 L 200 49 L 212 51 Z" fill="#0d1028" fill-opacity="0.501961" />
<path d="M 236 8 L 233 8 L 235 5 Z" fill="#13265c" fill-opacity="0.501961" />
<path d="M 20 1 L 16 6 L 22 4 Z" fill="#05386b" fill-opacity="0.501961" />
<path d="M 89 41 L 88 43 L 94 43 Z" fill="#5c728d" fill-opacity="0.501961" />
<path d="M 93 39 L 92 42 L 86 33 Z" fill="#1a507a" fill-opacity="0.501961" />
<path d="M 37 15 L 34 1 L 7 9 Z" fill="#0c142c" fill-opacity="0.501961" />
<path d="M 95 15 L 104 4 L 99 6 Z" fill="#0b435f" fill-opacity="0.501961" />
<path d="M 231 10 L 233 12 L 233 9 Z" fill="#3c7dab" fill-opacity="0.501961" />
<path d="M 157 23 L 151 23 L 146 19 Z" fill="#134278" fill-opacity="0.501961" />
<path d="M 155 24 L 157 25 L 151 26 Z" fill="#070a21" fill-opacity="0.501961" />
<path d="M 234 8 L 231 8 L 231 9 Z" fill="#98c5d2" fill-opacity="0.501961" />
<path d="M 34 18 L 34 27 L 39 27 Z" fill="#07376e" fill-opacity="0.501961" />
<path d="M 197 19 L 190 18 L 192 16 Z" fill="#1a6793" fill-opacity="0.501961" />
<path d="M 69 30 L 80 28 L 67 39 Z" fill="#092451" fill-opacity="0.501961" />
<path d="M 208 42 L 215 41 L 219 37 Z" fill="#030e30" fill-opacity="0.501961" />
<path d="M 109 33 L 105 40 L 108 42 Z" fill="#073a73" fill-opacity="0.501961" />
<path d="M 168 28 L 175 22 L 170 24 Z" fill="#001b44" fill-opacity="0.501961" />
<path d="M 99 8 L 99 7 L 97 8 Z" fill="#1186b1" fill-opacity="0.501961" />
<path d="M 56 21 L 60 20 L 63 22 Z" fill="#4eadcc" fill-opacity="0.501961" />
<path d="M 99 66 L 97 59 L 96 65 Z" fill="#0b3051" fill-opacity="0.501961" />
<path d="M 56 36 L 56 42 L 58 40 Z" fill="#2a7695" fill-opacity="0.501961" />
<path d="M 131 33 L 128 36 L 128 31 Z" fill="#0b477a" fill-opacity="0.501961" />
<path d="M 57 44 L 65 57 L 60 64 Z" fill="#072d5e" fill-opacity="0.501961" />
<path d="M 154 53 L 144 51 L 156 50 Z" fill="#0c1026" fill-opacity="0.501961" />
<path d="M 90 32 L 104 30 L 88 28 Z" fill="#08193b" fill-opacity="0.501961" />
<path d="M 181 54 L 185 53 L 182 48 Z" fill="#093c69" fill-opacity="0.501961" />
<path d="M 209 43 L 188 43 L 199 39 Z" fill="#234b70" fill-opacity="0.501961" />
<path d="M 66 67 L 42 62 L 55 81 Z" fill="#063a76" fill-opacity="0.501961" />
<path d="M 173 6 L 171 11 L 180 12 Z" fill="#0b091f" fill-opacity="0.501961" />
<path d="M 265 63 L 246 60 L 271 57 Z" fill="#0e0816" fill-opacity="0.501961" />
<path d="M 181 12 L 184 9 L 191 9 Z" fill="#1a263c" fill-opacity="0.501961" />
<path d="M 122 7 L 123 5 L 122 5 Z" fill="#0e96be" fill-opacity="0.501961" />
<path d="M 240 5 L 238 2 L 233 10 Z" fill="#335a82" fill-opacity="0.501961" />
<path d="M 22 62 L 20 59 L 20 62 Z" fill="#c8c8d7" fill-opacity="0.501961" />
<path d="M 49 69 L 22 60 L 32 81 Z" fill="#0e1835" fill-opacity="0.501961" />
<path d="M 210 41 L 190 40 L 209 35 Z" fill="#0a244a" fill-opacity="0.501961" />
<path d="M 171 28 L 164 28 L 175 31 Z" fill="#05528b" fill-opacity="0.501961" />
<path d="M 68 24 L 65 21 L 64 16 Z" fill="#a1b3c5" fill-opacity="0.501961" />
<path d="M 200 37 L 197 40 L 201 46 Z" fill="#246188" fill-opacity="0.501961" />
<path d="M 40 -16 L 27 -16 L 57 16 Z" fill="#0d0e22" fill-opacity="0.501961" />
<path d="M 195 1 L 187 2 L 190 10 Z" fill="#0c0b1f" fill-opacity="0.501961" />
<path d="M 98 32 L 94 33 L 96 24 Z" fill="#08376b" fill-opacity="0.501961" />
<path d="M 81 4 L 90 -11 L 94 -8 Z" fill="#113b57" fill-opacity="0.501961" />
<path d="M 186 17 L 187 14 L 191 16 Z" fill="#081129" fill-opacity="0.501961" />
<path d="M 141 33 L 151 36 L 144 36 Z" fill="#0b4982" fill-opacity="0.501961" />
<path d="M 200 34 L 202 36 L 193 39 Z" fill="#134976" fill-opacity="0.501961" />
<path d="M 247 48 L 271 45 L 271 53 Z" fill="#001134" fill-opacity="0.501961" />
<path d="M 184 18 L 185 13 L 187 16 Z" fill="#0c83be" fill-opacity="0.501961" />
<path d="M 186 4 L 182 11 L 187 8 Z" fill="#296d7e" fill-opacity="0.501961" />
<path d="M 128 57 L 128 66 L 122 48 Z" fill="#0d1027" fill-opacity="0.501961" />
<path d="M 174 15 L 156 22 L 162 16 Z" fill="#0d3359" fill-opacity="0.501961" />
<path d="M 14 57 L 6 63 L 10 57 Z" fill="#38537e" fill-opacity="0.501961" />
<path d="M 56 37 L 59 23 L 50 35 Z" fill="#083769" fill-opacity="0.501961" />
<path d="M 233 11 L 223 24 L 241 19 Z" fill="#06204a" fill-opacity="0.501961" />
<path d="M 166 36 L 169 28 L 177 32 Z" fill="#05447d" fill-opacity="0.501961" />
<path d="M 199 58 L 197 54 L 208 60 Z" fill="#092d55" fill-opacity="0.501961" />
<path d="M 214 13 L 207 30 L 218 29 Z" fill="#071e44" fill-opacity="0.501961" />
<path d="M 211 48 L 208 60 L 219 45 Z" fill="#071231" fill-opacity="0.501961" />
<path d="M 41 13 L 38 10 L 38 19 Z" fill="#07335e" fill-opacity="0.501961" />
<path d="M 260 22 L 235 15 L 249 11 Z" fill="#0c152f" fill-opacity="0.501961" />
<path d="M 170 21 L 176 21 L 170 18 Z" fill="#1f4974" fill-opacity="0.501961" />
<path d="M 113 16 L 111 19 L 119 22 Z" fill="#011a41" fill-opacity="0.501961" />
<path d="M 29 4 L 35 16 L 51 23 Z" fill="#091c3c" fill-opacity="0.501961" />
<path d="M 112 26 L 107 26 L 109 24 Z" fill="#046099" fill-opacity="0.501961" />
<path d="M 188 5 L 186 5 L 187 8 Z" fill="#1e90a0" fill-opacity="0.501961" />
<path d="M 184 3 L 194 0 L 197 9 Z" fill="#0c1128" fill-opacity="0.501961" />
<path d="M 210 1 L 198 3 L 206 19 Z" fill="#0c1c36" fill-opacity="0.501961" />
<path d="M 203 18 L 202 15 L 212 18 Z" fill="#083f71" fill-opacity="0.501961" />
<path d="M 194 25 L 188 21 L 191 21 Z" fill="#05193e" fill-opacity="0.501961" />
<path d="M 61 22 L 64 22 L 64 21 Z" fill="#63737c" fill-opacity="0.501961" />
<path d="M 82 51 L 85 63 L 81 72 Z" fill="#092244" fill-opacity="0.501961" />
<path d="M 160 1 L 149 8 L 165 3 Z" fill="#0f091e" fill-opacity="0.501961" />
<path d="M 118 31 L 122 42 L 118 40 Z" fill="#091e3e" fill-opacity="0.501961" />
<path d="M 10 55 L 16 40 L 6 37 Z" fill="#081b3e" fill-opacity="0.501961" />
<path d="M 92 53 L 88 47 L 98 54 Z" fill="#070e2a" fill-opacity="0.501961" />
<path d="M 123 39 L 116 38 L 129 44 Z" fill="#204267" fill-opacity="0.501961" />
<path d="M 167 38 L 161 42 L 163 36 Z" fill="#094582" fill-opacity="0.501961" />
</g>
</svg>
