<svg
 xmlns="http://www.w3.org/2000/svg"
 xmlns:xlink="http://www.w3.org/1999/xlink"
 width="43px" height="48px">
<path fill-rule="evenodd"  fill="rgb(255, 255, 255)"
 d="M42.794,2.274 L42.403,6.571 L42.231,8.476 L42.203,8.476 L21.525,8.476 L21.495,8.476 L9.380,8.476 L10.165,17.156 L21.495,17.156 L21.525,17.156 L39.136,17.156 L41.450,17.156 L41.240,19.432 L39.223,41.748 L39.094,43.180 L21.525,47.988 L21.525,47.989 L21.485,48.000 L3.900,43.180 L2.698,29.871 L6.669,29.871 L11.315,29.871 L11.926,36.631 L21.487,39.180 L21.495,39.178 L21.495,39.177 L31.070,36.626 L32.066,25.632 L21.525,25.632 L21.495,25.632 L2.314,25.632 L0.204,2.274 L-0.001,-0.000 L21.495,-0.000 L21.525,-0.000 L42.999,-0.000 L42.794,2.274 Z"/>
</svg>
