<svg
 xmlns="http://www.w3.org/2000/svg"
 xmlns:xlink="http://www.w3.org/1999/xlink"
 width="42px" height="48px">
<path fill-rule="evenodd"  fill="rgb(255, 255, 255)"
 d="M41.998,-0.000 L21.002,-0.000 L20.973,-0.000 L-0.001,-0.000 L0.199,2.274 L0.581,6.571 L0.750,8.477 L0.776,8.477 L20.973,8.477 L21.002,8.477 L32.834,8.477 L32.068,17.156 L20.973,17.156 L20.973,17.157 L11.003,17.157 L11.203,19.431 L11.586,23.729 L11.754,25.634 L11.780,25.634 L20.973,25.634 L20.973,25.632 L31.324,25.632 L30.346,36.625 L20.994,39.177 L20.994,39.178 L20.987,39.180 L11.649,36.631 L11.052,29.871 L6.514,29.871 L2.635,29.871 L3.810,43.179 L20.985,48.000 L21.023,47.989 L21.023,47.987 L38.183,43.179 L38.309,41.748 L39.736,25.632 L39.736,25.632 L39.741,25.581 L39.768,25.273 L39.768,25.273 L41.797,2.274 L41.998,-0.000 Z"/>
</svg>
