<svg
 xmlns="http://www.w3.org/2000/svg"
 xmlns:xlink="http://www.w3.org/1999/xlink"
 width="54px" height="38px">
<path fill-rule="evenodd"  fill="rgb(56, 56, 56)"
 d="M41.865,14.561 C44.224,15.751 46.674,16.782 48.951,18.106 C51.351,19.503 52.994,21.600 53.636,24.360 C55.119,30.733 51.963,35.948 45.533,37.436 C40.679,38.559 35.980,38.081 31.710,35.294 C29.778,34.032 28.310,32.340 27.178,30.147 C29.294,28.931 31.291,27.784 33.412,26.566 C33.756,27.023 34.088,27.484 34.439,27.929 C36.590,30.657 39.892,31.793 43.089,30.894 C44.642,30.458 45.881,29.646 46.155,27.940 C46.436,26.194 45.604,24.916 44.106,24.131 C42.398,23.236 40.599,22.514 38.866,21.664 C37.323,20.908 35.729,20.207 34.310,19.258 C30.309,16.585 28.655,12.226 29.764,7.691 C30.779,3.544 34.144,0.783 38.962,0.145 C44.563,-0.597 48.991,1.462 51.675,6.179 C50.720,6.793 49.752,7.418 48.780,8.038 C47.796,8.666 46.808,9.290 45.757,9.956 C45.416,9.500 45.126,9.106 44.830,8.716 C43.658,7.175 42.077,6.586 40.173,6.794 C38.809,6.943 37.780,7.588 37.300,8.904 C36.814,10.239 37.167,11.780 38.352,12.623 C39.434,13.392 40.670,13.958 41.865,14.561 ZM9.870,37.864 C5.360,37.424 2.121,35.130 0.000,30.971 C2.114,29.704 4.124,28.499 6.242,27.230 C6.651,27.834 7.026,28.414 7.427,28.976 C8.235,30.108 9.247,30.931 10.710,31.072 C13.555,31.346 15.073,30.166 15.239,27.347 C15.365,25.228 15.307,23.098 15.309,20.973 C15.316,14.720 15.312,8.467 15.312,2.215 C15.312,1.683 15.312,1.151 15.312,0.556 C17.942,0.556 20.411,0.556 23.068,0.556 C23.068,1.049 23.068,1.490 23.068,1.932 C23.068,9.977 23.080,18.022 23.064,26.066 C23.048,34.410 18.276,38.684 9.870,37.864 Z"/>
</svg>
