<?xml version="1.0" standalone="no"?>
<!DOCTYPE svg PUBLIC "-//W3C//DTD SVG 20010904//EN"
 "http://www.w3.org/TR/2001/REC-SVG-20010904/DTD/svg10.dtd">
<svg version="1.0" xmlns="http://www.w3.org/2000/svg"
 width="110.000000pt" height="110.000000pt" viewBox="0 0 110.000000 110.000000"
 preserveAspectRatio="xMidYMid meet">
<metadata>
Created by potrace 1.11, written by Peter Selinger 2001-2013
</metadata>
<g transform="translate(0.000000,110.000000) scale(0.100000,-0.100000)"
fill="#000000" stroke="none">
<path d="M584 663 c-140 -292 -162 -344 -166 -398 -3 -44 -1 -50 17 -50 21 0
47 47 194 361 57 120 72 161 74 204 2 44 -1 55 -15 58 -14 3 -36 -35 -104
-175z"/>
<path d="M250 684 c-74 -47 -141 -91 -147 -98 -7 -6 -15 -32 -18 -56 l-5 -45
119 -92 c66 -51 126 -93 135 -93 17 0 36 57 38 114 1 28 -5 40 -28 58 -16 13
-40 33 -53 44 l-25 22 55 35 c30 19 61 42 68 50 15 19 20 138 6 143 -5 2 -71
-35 -145 -82z"/>
<path d="M771 741 c-6 -10 -13 -44 -17 -74 l-6 -54 56 -43 57 -43 -64 -43
c-63 -42 -64 -44 -76 -103 -21 -108 -8 -107 170 10 132 87 139 93 147 132 5
23 7 45 5 49 -9 16 -236 188 -249 188 -7 0 -18 -9 -23 -19z"/>
</g>
</svg>
